<svg xmlns="http://www.w3.org/2000/svg" viewBox="0 0 320 1175"><path fill="#555" d="M108 780L119 771L127 772L134 778L136 777L125 769L119 769L115 771L108 778ZM211 776L206 771L198 768L190 771L184 778L185 779L197 770L204 772L210 778ZM29 643L31 642L33 644L37 644L48 653L46 654L33 649ZM287 642L286 646L282 649L270 654L268 653L279 644L286 641ZM40 635L42 634L49 636L51 639L42 640ZM277 634L275 636L275 641L267 640L265 638L266 636L275 633ZM155 557L161 557L163 559L158 587L156 585L156 574L153 559ZM244 456L245 455L246 457L245 458ZM269 416L262 420L254 420L254 422L260 423L265 421ZM48 417L50 420L57 423L61 423L63 421L55 420L49 416ZM229 325L231 329L235 366L244 412L244 455L210 404L211 389ZM87 324L105 386L108 403L71 459L70 455L73 444L73 406L78 384ZM123 120L132 125L148 129L174 128L192 120L190 130L183 144L181 145L174 141L169 141L180 147L180 178L185 191L197 200L211 205L246 211L258 221L262 229L265 241L268 270L274 409L287 453L290 480L292 571L298 620L290 634L284 640L279 641L278 637L285 624L279 592L277 592L274 596L268 617L266 619L265 618L266 600L269 590L272 594L271 575L276 564L277 557L274 549L274 534L268 504L252 469L247 453L246 407L239 376L231 318L237 287L237 277L235 274L231 308L213 370L212 380L207 395L207 402L210 410L246 464L261 495L267 513L270 530L270 560L259 623L240 690L240 695L232 719L223 766L224 795L231 820L234 842L234 875L229 906L208 987L200 1035L203 1045L201 1059L212 1110L213 1130L212 1137L206 1143L187 1149L174 1149L170 1144L169 1134L172 1084L174 1083L180 1089L191 1089L197 1084L198 1080L191 1087L183 1088L180 1087L173 1079L175 1053L172 1048L172 1042L176 1038L177 985L166 874L167 840L171 811L169 785L170 734L161 634L161 583L164 563L166 561L185 568L202 569L222 566L185 566L167 559L161 553L159 548L159 517L157 517L157 549L148 560L131 566L122 567L92 566L99 568L130 568L150 562L155 586L155 640L148 726L149 782L147 792L147 819L151 847L151 880L141 982L142 1036L140 1038L145 1042L145 1048L143 1051L145 1079L135 1088L129 1088L121 1083L123 1087L131 1090L139 1088L144 1082L146 1083L149 1142L147 1147L144 1149L134 1149L116 1143L110 1139L105 1132L106 1107L117 1058L115 1046L119 1038L117 1034L116 1020L108 978L90 910L84 877L84 839L95 786L95 753L86 710L62 634L46 556L46 533L48 520L57 491L73 460L105 412L111 400L84 302L81 273L80 295L85 312L80 359L70 411L70 447L63 473L53 492L44 524L43 545L40 555L40 562L50 594L51 613L49 619L45 611L42 597L38 592L36 593L36 598L34 601L31 623L39 640L33 641L19 622L24 570L28 464L32 441L42 410L45 321L51 237L54 227L64 214L79 209L93 208L115 202L125 197L132 190L136 179L135 149L137 146L146 142L146 140L134 145L126 134L122 122ZM115 108L116 107L117 109L116 110ZM202 91L204 93L204 99L201 108L198 111L199 98ZM112 91L114 92L116 99L115 108L111 98ZM155 24L170 26L181 31L192 43L198 58L199 80L195 113L181 124L169 127L146 127L134 124L127 120L120 113L117 96L116 62L120 47L125 39L136 30ZM149 23L132 30L120 43L116 52L113 66L114 88L110 89L108 92L111 106L114 112L119 116L122 130L133 148L132 185L125 194L116 199L96 205L72 208L65 211L55 220L50 231L45 275L41 398L38 418L30 440L25 469L22 569L16 621L20 630L25 636L25 641L28 648L35 653L44 656L51 656L51 652L40 644L44 642L51 642L54 640L54 637L48 633L38 630L34 624L38 599L41 602L44 617L47 622L52 622L53 612L55 612L67 661L88 727L92 751L93 774L91 795L83 827L81 870L86 904L102 963L116 1037L113 1043L114 1060L105 1098L102 1131L105 1138L112 1144L126 1150L143 1152L150 1148L152 1136L146 1062L148 1041L145 1037L143 1009L145 956L153 888L153 841L149 808L152 777L150 732L157 638L158 637L160 640L167 730L166 783L168 791L168 818L164 849L164 881L174 980L174 1029L173 1036L169 1042L172 1057L166 1134L170 1150L174 1152L185 1152L198 1149L209 1144L215 1136L213 1102L203 1056L205 1051L203 1031L211 984L230 912L236 881L236 835L225 783L226 761L230 738L255 645L260 632L261 623L267 622L271 618L277 598L281 610L282 624L278 630L262 636L262 640L275 645L266 650L264 654L265 656L272 656L288 648L291 637L299 625L300 613L294 567L293 494L290 456L277 412L275 398L274 329L271 276L265 231L261 221L251 211L245 208L221 205L200 199L193 195L184 185L183 148L191 134L195 117L202 111L206 99L205 89L200 88L200 58L194 42L182 29L167 23Z"/></svg>